<svg xmlns="http://www.w3.org/2000/svg" viewBox="0 0 100 100">
  <defs>
    <linearGradient id="gradGa" x1="0%" y1="0%" x2="100%" y2="100%">
      <stop offset="0%" style="stop-color:#BA68C8;stop-opacity:1" />
      <stop offset="100%" style="stop-color:#7B1FA2;stop-opacity:1" />
    </linearGradient>
  </defs>
  <ellipse cx="50" cy="55" rx="25" ry="35" fill="url(#gradGa)"/>
  <ellipse cx="50" cy="53" rx="22" ry="32" fill="#AB47BC"/>
  <circle cx="42" cy="40" r="5" fill="#fff"/>
  <circle cx="58" cy="40" r="5" fill="#fff"/>
  <circle cx="43" cy="41" r="2" fill="#4A148C"/>
  <circle cx="59" cy="41" r="2" fill="#4A148C"/>
  <polygon points="50,42 48,50 52,50" fill="#F06292"/>
  <polygon points="35,28 40,22 45,28" fill="#E91E63"/>
  <polygon points="50,25 55,18 60,25" fill="#E91E63"/>
  <polygon points="65,28 70,22 75,28" fill="#E91E63"/>
  <polygon points="40,23 50,20 60,23" fill="#C2185B"/>
  <ellipse cx="30" cy="80" rx="8" ry="15" fill="#7B1FA2"/>
  <ellipse cx="70" cy="80" rx="8" ry="15" fill="#7B1FA2"/>
  <ellipse cx="30" cy="82" rx="6" ry="13" fill="#AB47BC"/>
  <ellipse cx="70" cy="82" rx="6" ry="13" fill="#AB47BC"/>
</svg>