<svg xmlns="http://www.w3.org/2000/svg" viewBox="0 0 100 100">
  <defs>
    <linearGradient id="gradNai" x1="0%" y1="0%" x2="100%" y2="100%">
      <stop offset="0%" style="stop-color:#8D6E63;stop-opacity:1" />
      <stop offset="100%" style="stop-color:#5D4037;stop-opacity:1" />
    </linearGradient>
  </defs>
  <ellipse cx="50" cy="60" rx="35" ry="30" fill="url(#gradNai)"/>
  <ellipse cx="50" cy="58" rx="32" ry="27" fill="#A1887F"/>
  <ellipse cx="35" cy="25" rx="6" ry="15" fill="#5D4037"/>
  <ellipse cx="65" cy="25" rx="6" ry="15" fill="#5D4037"/>
  <ellipse cx="32" cy="22" rx="4" ry="8" fill="#8D6E63"/>
  <ellipse cx="68" cy="22" rx="4" ry="8" fill="#8D6E63"/>
  <path d="M33 15 L35 8 L37 15" fill="#5D4037"/>
  <path d="M35 12 L37 5 L39 12" fill="#6D4C41"/>
  <path d="M63 15 L65 8 L67 15" fill="#5D4037"/>
  <path d="M65 12 L67 5 L69 12" fill="#6D4C41"/>
  <ellipse cx="40" cy="50" rx="5" ry="4" fill="#fff"/>
  <ellipse cx="60" cy="50" rx="5" ry="4" fill="#fff"/>
  <circle cx="41" cy="51" r="2" fill="#3E2723"/>
  <circle cx="61" cy="51" r="2" fill="#3E2723"/>
  <ellipse cx="50" cy="58" rx="8" ry="5" fill="#3E2723"/>
  <ellipse cx="40" cy="75" rx="10" ry="8" fill="#5D4037"/>
  <ellipse cx="60" cy="75" rx="10" ry="8" fill="#5D4037"/>
  <ellipse cx="40" cy="73" rx="8" ry="6" fill="#8D6E63"/>
  <ellipse cx="60" cy="73" rx="8" ry="6" fill="#8D6E63"/>
</svg>