<svg xmlns="http://www.w3.org/2000/svg" viewBox="0 0 100 100">
  <defs>
    <linearGradient id="gradTom" x1="0%" y1="0%" x2="100%" y2="100%">
      <stop offset="0%" style="stop-color:#FFB74D;stop-opacity:1" />
      <stop offset="100%" style="stop-color:#E65100;stop-opacity:1" />
    </linearGradient>
  </defs>
  <ellipse cx="50" cy="50" rx="12" ry="30" fill="url(#gradTom)"/>
  <ellipse cx="50" cy="48" rx="10" ry="26" fill="#FF9800"/>
  <path d="M45 30 Q50 20 55 30" fill="none" stroke="#E65100" stroke-width="4"/>
  <circle cx="46" cy="35" r="2" fill="#fff"/>
  <circle cx="54" cy="35" r="2" fill="#fff"/>
  <path d="M35 40 Q25 35 30 50" fill="none" stroke="#E65100" stroke-width="3"/>
  <path d="M65 40 Q75 35 70 50" fill="none" stroke="#E65100" stroke-width="3"/>
  <ellipse cx="38" cy="70" rx="15" ry="5" fill="#E65100"/>
  <ellipse cx="62" cy="70" rx="15" ry="5" fill="#E65100"/>
  <path d="M30 72 Q25 80 35 78" fill="none" stroke="#BF360C" stroke-width="2"/>
  <path d="M70 72 Q75 80 65 78" fill="none" stroke="#BF360C" stroke-width="2"/>
  <path d="M40 25 Q35 18 42 22" fill="none" stroke="#BF360C" stroke-width="2"/>
  <path d="M60 25 Q65 18 58 22" fill="none" stroke="#BF360C" stroke-width="2"/>
</svg>